HIERARCHY
ROOT Hips
{
    OFFSET 0.000000 0.000000 0.000000
    CHANNELS 6 Xposition Yposition Zposition Zrotation Xrotation Yrotation
    JOINT Spine
    {
        OFFSET -0.000000 14.517291 0.000000
        CHANNELS 3 Zrotation Xrotation Yrotation
        JOINT Spine1
        {
            OFFSET -0.000000 37.558300 0.000000
            CHANNELS 3 Zrotation Xrotation Yrotation
            JOINT Neck
            {
                OFFSET -0.000000 37.404057 3.400369
                CHANNELS 3 Zrotation Xrotation Yrotation
                JOINT Head
                {
                    OFFSET -0.000000 24.785618 -3.540803
                    CHANNELS 3 Zrotation Xrotation Yrotation
                    End Site
                    {
                        OFFSET -0.000000 35.408028 0.000000
                    }
                }
            }
            JOINT LeftShoulder
            {
                OFFSET 6.992933 33.973492 -0.192664
                CHANNELS 3 Zrotation Xrotation Yrotation
                JOINT LeftArm
                {
                    OFFSET 21.527611 0.000000 0.000000
                    CHANNELS 3 Zrotation Xrotation Yrotation
                    JOINT LeftForeArm
                    {
                        OFFSET 56.353916 0.000000 0.000000
                        CHANNELS 3 Zrotation Xrotation Yrotation
                        JOINT LeftHand
                        {
                            OFFSET 47.774071 0.000000 0.000000
                            CHANNELS 3 Zrotation Xrotation Yrotation
                            End Site
                            {
                                OFFSET 26.556021 0.000000 0.000000
                            }
                        }
                    }
                }
            }
            JOINT RightShoulder
            {
                OFFSET -7.065357 33.973492 -0.192664
                CHANNELS 3 Zrotation Xrotation Yrotation
                JOINT RightArm
                {
                    OFFSET -21.527611 0.000000 0.000000
                    CHANNELS 3 Zrotation Xrotation Yrotation
                    JOINT RightForeArm
                    {
                        OFFSET -56.353916 0.000000 0.000000
                        CHANNELS 3 Zrotation Xrotation Yrotation
                        JOINT RightHand
                        {
                            OFFSET -47.774071 0.000000 0.000000
                            CHANNELS 3 Zrotation Xrotation Yrotation
                            End Site
                            {
                                OFFSET -26.556021 0.000000 0.000000
                            }
                        }
                    }
                }
            }
        }
    }
    JOINT LeftUpLeg
    {
        OFFSET 17.704014 0.000000 0.000000
        CHANNELS 3 Zrotation Xrotation Yrotation
        JOINT LeftLeg
        {
            OFFSET -0.000000 -81.181816 0.000000
            CHANNELS 3 Zrotation Xrotation Yrotation
            JOINT LeftFoot
            {
                OFFSET -0.000000 -62.821102 0.000000
                CHANNELS 3 Zrotation Xrotation Yrotation
                JOINT LeftToeBase
                {
                    OFFSET -0.000000 -11.507608 26.556021
                    CHANNELS 3 Zrotation Xrotation Yrotation
                    End Site
                    {
                        OFFSET -0.000000 0.000000 7.081605
                    }
                }
            }
        }
    }
    JOINT RightUpLeg
    {
        OFFSET -17.704014 0.000000 0.000000
        CHANNELS 3 Zrotation Xrotation Yrotation
        JOINT RightLeg
        {
            OFFSET -0.000000 -81.181816 0.000000
            CHANNELS 3 Zrotation Xrotation Yrotation
            JOINT RightFoot
            {
                OFFSET -0.000000 -62.821102 0.000000
                CHANNELS 3 Zrotation Xrotation Yrotation
                JOINT RightToeBase
                {
                    OFFSET -0.000000 -11.507608 26.556021
                    CHANNELS 3 Zrotation Xrotation Yrotation
                    End Site
                    {
                        OFFSET -0.000000 0.000000 7.081605
                    }
                }
            }
        }
    }
}
MOTION
Frames:    11
Frame Time:    0.008333
1.287668    154.342239    -25.860504    -4.201274    1.394843    -20.092800    4.339427    2.379327    15.512480    -2.771138    -0.433115    5.190408    7.872166    -3.900673    -2.462726    3.581580    7.232494    -3.722472    2.701356    1.939011    -5.898746    -46.600945    13.571905    -35.392578    -5.869107    -17.798134    -126.133972    -0.691755    -28.434999    -2.250600    -15.624096    -1.875734    8.616796    31.211170    -21.192911    77.756905    4.630502    -16.030146    17.128828    11.856375    -12.106986    43.443645    12.515125    -29.961281    -37.006466    -6.766008    27.267418    -33.271893    -8.409504    -10.627585    22.756420    0.000000    0.000000    0.000000    -1.347747    1.701377    -15.074187    3.029071    33.153088    -6.234048    5.817039    -26.230904    -8.518366    0.000000    0.000000    0.000000    
1.291492    154.313629    -25.757736    -4.210237    1.385081    -20.088972    4.345273    2.402755    15.484689    -2.776827    -0.472743    5.180496    7.851020    -3.875818    -2.489820    3.622320    7.222951    -3.741506    2.704335    1.941478    -5.924668    -46.576382    13.618643    -35.382114    -5.855610    -17.843519    -126.109894    -0.696156    -28.447809    -2.234433    -15.626861    -1.853601    8.633224    31.173216    -21.189718    77.736954    4.636675    -16.044378    17.117723    11.857050    -12.121372    43.446205    12.498084    -29.976908    -36.958237    -6.772249    27.339506    -33.239464    -8.550540    -10.607993    22.648010    0.000000    0.000000    0.000000    -1.359876    1.758266    -15.079049    3.034155    33.145142    -6.214424    5.819282    -26.264654    -8.536609    0.000000    0.000000    0.000000    
1.292669    154.281754    -25.660959    -4.213287    1.378059    -20.075890    4.335051    2.422774    15.460663    -2.766258    -0.522851    5.171510    7.821400    -3.849672    -2.522929    3.669605    7.222329    -3.764938    2.704088    1.969296    -5.954882    -46.557526    13.671010    -35.386505    -5.830722    -17.912567    -126.078888    -0.761120    -28.460194    -2.253220    -15.633009    -1.828355    8.640906    31.177151    -21.192009    77.732376    4.645269    -16.022366    17.091227    11.856300    -12.100949    43.433357    12.477064    -29.995321    -36.869831    -6.760030    27.413952    -33.235924    -8.672503    -10.615310    22.534737    0.000000    0.000000    0.000000    -1.372358    1.814015    -15.079082    3.043748    33.132549    -6.219978    5.839757    -26.309805    -8.519079    0.000000    0.000000    0.000000    
1.290629    154.256531    -25.566057    -4.214973    1.368312    -20.051517    4.328465    2.428167    15.436224    -2.759195    -0.533648    5.163152    7.805975    -3.845544    -2.554528    3.697799    7.220090    -3.792390    2.703272    1.980690    -5.996079    -46.540375    13.685077    -35.398636    -5.841366    -17.914768    -126.048607    -0.776188    -28.473875    -2.268537    -15.650811    -1.813899    8.635474    31.191540    -21.203773    77.729111    4.652454    -16.008396    17.067236    11.862728    -12.085195    43.425808    12.447410    -30.009077    -36.796623    -6.745815    27.486824    -33.271835    -8.781880    -10.652249    22.486719    0.000000    0.000000    0.000000    -1.376414    1.872477    -15.093340    3.037770    33.112888    -6.222328    5.862288    -26.356907    -8.517612    0.000000    0.000000    0.000000    
1.286274    154.235046    -25.474995    -4.206664    1.369017    -20.024302    4.312068    2.409472    15.415521    -2.742142    -0.523789    5.156205    7.794138    -3.863372    -2.583660    3.712861    7.231173    -3.820962    2.699968    1.991043    -6.012796    -46.531929    13.706893    -35.450962    -5.855246    -17.910427    -126.007172    -0.800617    -28.484571    -2.273198    -15.653650    -1.828910    8.621992    31.197971    -21.199797    77.726418    4.666101    -15.989973    17.028685    11.837885    -12.074829    43.441811    12.421612    -30.032124    -36.738331    -6.748650    27.546349    -33.270706    -8.849797    -10.677076    22.396349    0.000000    0.000000    0.000000    -1.376780    1.907559    -15.089825    3.021065    33.102875    -6.255370    5.890290    -26.383411    -8.507094    0.000000    0.000000    0.000000    
1.280694    154.217453    -25.390923    -4.191961    1.371787    -19.985533    4.293759    2.390900    15.389557    -2.725821    -0.511717    5.147561    7.764787    -3.897006    -2.614553    3.733917    7.252918    -3.849085    2.689317    1.989119    -6.033204    -46.522278    13.688810    -35.483101    -5.875097    -17.844894    -125.976532    -0.797626    -28.452108    -2.266243    -15.674974    -1.818660    8.603050    31.241505    -21.222614    77.748886    4.684169    -15.970601    17.009113    11.812264    -12.071315    43.405865    12.387005    -30.059896    -36.733807    -6.777021    27.598494    -33.239262    -8.904552    -10.703957    22.325331    0.000000    0.000000    0.000000    -1.378401    1.937223    -15.079323    3.016034    33.092911    -6.276577    5.901251    -26.412996    -8.527242    0.000000    0.000000    0.000000    
1.276763    154.210373    -25.313166    -4.175312    1.376828    -19.938826    4.279980    2.372529    15.364110    -2.716468    -0.493124    5.139240    7.754584    -3.948974    -2.636731    3.729088    7.283659    -3.875273    2.685614    1.978628    -6.048067    -46.510223    13.721152    -35.522110    -5.887109    -17.830498    -125.961662    -0.727186    -28.458153    -2.203259    -15.670960    -1.841848    8.588614    31.235624    -21.225660    77.737228    4.693235    -15.958139    16.982752    11.802341    -12.060721    43.423508    12.340506    -30.096359    -36.721630    -6.783879    27.662169    -33.244080    -8.964026    -10.727411    22.266258    0.000000    0.000000    0.000000    -1.377252    1.955896    -15.060202    3.004920    33.090729    -6.263712    5.907394    -26.431343    -8.601447    0.000000    0.000000    0.000000    
1.273670    154.202621    -25.244764    -4.156317    1.383390    -19.891735    4.263607    2.369840    15.352909    -2.710146    -0.506617    5.135058    7.777218    -3.974650    -2.654060    3.676623    7.299474    -3.903953    2.683578    1.989656    -6.064374    -46.496475    13.758194    -35.570686    -5.889164    -17.817944    -125.933083    -0.733377    -28.443577    -2.191320    -15.662004    -1.848933    8.567341    31.235718    -21.225142    77.728333    4.689043    -15.945727    16.949793    11.801701    -12.046889    43.419003    12.291484    -30.139923    -36.717266    -6.806809    27.731770    -33.258984    -8.962778    -10.734470    22.237986    0.000000    0.000000    0.000000    -1.374200    1.967575    -15.004057    3.019211    33.086487    -6.295001    5.890619    -26.441088    -8.697427    0.000000    0.000000    0.000000    
1.269021    154.198883    -25.180935    -4.143717    1.383313    -19.841066    4.255586    2.383202    15.345562    -2.708824    -0.527442    5.132248    7.794528    -3.987037    -2.673687    3.626605    7.297119    -3.932344    2.687374    1.998613    -6.092553    -46.468876    13.826306    -35.627232    -5.836612    -17.902668    -125.926376    -0.777179    -28.429136    -1.971848    -15.655654    -1.866482    8.572319    31.205080    -21.221682    77.672798    4.670271    -15.936594    16.924881    11.801506    -12.036087    43.400684    12.239581    -30.177999    -36.727570    -6.825065    27.807421    -33.304794    -8.971646    -10.754111    22.249434    0.000000    0.000000    0.000000    -1.368371    1.998268    -14.946404    3.038508    33.060162    -6.339600    5.901814    -26.453363    -8.773612    0.000000    0.000000    0.000000    
1.267306    154.198227    -25.116646    -4.142493    1.391833    -19.782164    4.273289    2.391670    15.331149    -2.726136    -0.543875    5.127188    7.793483    -3.989592    -2.694791    3.620295    7.283767    -3.954399    2.716716    2.017032    -6.099874    -46.485054    13.869101    -35.682415    -5.817414    -17.894371    -125.903564    -0.786068    -28.382795    -1.974509    -15.621344    -1.893912    8.572639    31.126532    -21.196112    77.613853    4.633364    -15.964997    16.889730    11.816944    -12.051005    43.409973    12.190664    -30.220451    -36.744293    -6.830550    27.884111    -33.336693    -8.960402    -10.767547    22.228455    0.000000    0.000000    0.000000    -1.356899    2.034894    -14.907712    3.065155    33.020771    -6.377884    5.903398    -26.441729    -8.824948    0.000000    0.000000    0.000000    
1.265855    154.191299    -25.050890    -4.138834    1.394561    -19.723021    4.286407    2.404127    15.325426    -2.734693    -0.563663    5.125014    7.792951    -3.999105    -2.708603    3.599139    7.281157    -3.970936    2.740861    2.034335    -6.118563    -46.498486    13.905786    -35.726456    -5.807010    -17.884903    -125.898331    -0.808279    -28.354446    -1.964386    -15.616157    -1.925123    8.553618    31.121258    -21.172785    77.578773    4.613968    -15.960358    16.847017    11.828492    -12.036982    43.411831    12.131173    -30.259958    -36.779675    -6.836403    27.973265    -33.361336    -8.945308    -10.797138    22.208782    0.000000    0.000000    0.000000    -1.355226    2.086717    -14.883041    3.093070    32.970158    -6.430183    5.932544    -26.457388    -8.833214    0.000000    0.000000    0.000000    
